<?xml version="1.0" encoding="utf-8"?>
<!-- Generator: Adobe Illustrator 18.1.0, SVG Export Plug-In . SVG Version: 6.00 Build 0)  -->
<!DOCTYPE svg PUBLIC "-//W3C//DTD SVG 1.1//EN" "http://www.w3.org/Graphics/SVG/1.1/DTD/svg11.dtd">
<svg version="1.1" id="Layer_1" xmlns="http://www.w3.org/2000/svg" xmlns:xlink="http://www.w3.org/1999/xlink" x="0px" y="0px"
	 viewBox="0 0 234 72" enable-background="new 0 0 234 72" xml:space="preserve">
<g>
	<circle fill="#F9CE4A" cx="31.4" cy="23.2" r="2.9"/>
	<circle fill="#F9CE4A" cx="35.8" cy="27.4" r="3.4"/>
	<circle fill="#F9CE4A" cx="35.8" cy="44.6" r="3.4"/>
	<circle fill="#F9CE4A" cx="44.4" cy="36" r="3.4"/>
	<circle fill="#F9CE4A" cx="27.2" cy="36" r="3.4"/>
	<circle fill="#F9CE4A" cx="31.3" cy="31.5" r="3.4"/>
	<circle fill="#F9CE4A" cx="40.3" cy="31.5" r="3.4"/>
	<circle fill="#F9CE4A" cx="31.3" cy="40.6" r="3.4"/>
	<circle fill="#F9CE4A" cx="40.3" cy="40.6" r="3.4"/>
	<circle fill="#F9CE4A" cx="35.8" cy="36" r="6"/>
	<circle fill="#F9CE4A" cx="35.8" cy="18.8" r="2.5"/>
	<circle fill="#F9CE4A" cx="35.8" cy="53.2" r="2.5"/>
	<circle fill="#F9CE4A" cx="53" cy="36" r="2.5"/>
	<circle fill="#F9CE4A" cx="18.6" cy="36" r="2.5"/>
	<circle fill="#F9CE4A" cx="22.9" cy="31.7" r="2.9"/>
	<circle fill="#F9CE4A" cx="44.4" cy="44.6" r="3"/>
	<circle fill="#F9CE4A" cx="27.2" cy="44.6" r="3"/>
	<circle fill="#F9CE4A" cx="44.4" cy="27.4" r="3"/>
	<circle fill="#F9CE4A" cx="27.2" cy="27.4" r="3"/>
	<circle fill="#F9CE4A" cx="31.5" cy="14.5" r="1.7"/>
	<circle fill="#F9CE4A" cx="18.6" cy="27.4" r="2.2"/>
	<circle fill="#F9CE4A" cx="27.2" cy="18.8" r="2.2"/>
	<circle fill="#F9CE4A" cx="22.9" cy="23.1" r="2.4"/>
	<circle fill="#F9CE4A" cx="48.8" cy="40.3" r="2.9"/>
	<circle fill="#F9CE4A" cx="40.1" cy="48.9" r="2.9"/>
	<circle fill="#F9CE4A" cx="48.7" cy="31.7" r="2.9"/>
	<circle fill="#F9CE4A" cx="40.1" cy="23.2" r="2.9"/>
	<circle fill="#F9CE4A" cx="31.5" cy="48.9" r="2.9"/>
	<circle fill="#F9CE4A" cx="22.9" cy="40.3" r="2.9"/>
	<circle fill="#F9CE4A" cx="14.3" cy="31.7" r="1.7"/>
	<circle fill="#F9CE4A" cx="57.3" cy="40.3" r="1.7"/>
	<circle fill="#F9CE4A" cx="44.4" cy="53.2" r="2.2"/>
	<circle fill="#F9CE4A" cx="53" cy="44.6" r="2.2"/>
	<circle fill="#F9CE4A" cx="48.7" cy="49" r="2.4"/>
	<circle fill="#F9CE4A" cx="40.1" cy="57.5" r="1.7"/>
	<circle fill="#F9CE4A" cx="57.3" cy="31.7" r="1.7"/>
	<circle fill="#F9CE4A" cx="53" cy="18.8" r="1.3"/>
	<circle fill="#F9CE4A" cx="48.7" cy="14.5" r="1.1"/>
	<circle fill="#F9CE4A" cx="57.3" cy="23.1" r="1.1"/>
	<circle fill="#F9CE4A" cx="18.6" cy="53.2" r="1.3"/>
	<circle fill="#F9CE4A" cx="14.3" cy="48.9" r="1.1"/>
	<circle fill="#F9CE4A" cx="22.9" cy="57.5" r="1.1"/>
	<circle fill="#F9CE4A" cx="53" cy="53.2" r="1.3"/>
	<circle fill="#F9CE4A" cx="57.3" cy="48.9" r="1.1"/>
	<circle fill="#F9CE4A" cx="61.6" cy="36" r="1"/>
	<circle fill="#F9CE4A" cx="10" cy="36" r="1"/>
	<circle fill="#F9CE4A" cx="35.8" cy="61.8" r="1"/>
	<circle fill="#F9CE4A" cx="35.8" cy="10.2" r="1"/>
	<circle fill="#F9CE4A" cx="48.7" cy="57.5" r="1.1"/>
	<circle fill="#F9CE4A" cx="18.6" cy="18.8" r="1.3"/>
	<circle fill="#F9CE4A" cx="22.9" cy="14.5" r="1.1"/>
	<circle fill="#F9CE4A" cx="14.3" cy="23.1" r="1.1"/>
	<circle fill="#F9CE4A" cx="44.4" cy="18.8" r="2.2"/>
	<circle fill="#F9CE4A" cx="53" cy="27.4" r="2.2"/>
	<circle fill="#F9CE4A" cx="48.7" cy="23.1" r="2.4"/>
	<circle fill="#F9CE4A" cx="40.1" cy="14.5" r="1.7"/>
	<circle fill="#F9CE4A" cx="31.5" cy="57.5" r="1.7"/>
	<circle fill="#F9CE4A" cx="18.6" cy="44.6" r="2.2"/>
	<circle fill="#F9CE4A" cx="27.2" cy="53.2" r="2.2"/>
	<circle fill="#F9CE4A" cx="22.8" cy="48.9" r="2.4"/>
	<circle fill="#F9CE4A" cx="14.2" cy="40.3" r="1.7"/>
</g>
<g>
	<path fill="#262626" d="M75.7,36c-1.8,0-3.4-0.7-4.7-2c-1.3-1.3-2-3-2-5.1s0.7-3.8,2-5.1c1.4-1.3,3-2,5-2c2,0,3.6,0.7,5,2.1
		l-1.6,2.1c-1.1-1-2.3-1.6-3.4-1.6c-1.1,0-2.1,0.4-3,1.2c-0.8,0.8-1.3,1.8-1.3,3.1s0.4,2.3,1.2,3.2s1.9,1.3,3.1,1.3
		c1.2,0,2.4-0.6,3.4-1.8l1.6,1.9C79.6,35.2,77.8,36,75.7,36z"/>
	<path fill="#262626" d="M95.6,34c-1.3,1.4-2.9,2.1-4.9,2.1c-2,0-3.6-0.7-4.9-2.1c-1.3-1.4-2-3-2-5s0.7-3.7,2-5
		c1.3-1.4,2.9-2.1,4.9-2.1c2,0,3.6,0.7,4.9,2.1c1.3,1.4,2,3,2,5S96.9,32.6,95.6,34z M87.8,32.2c0.8,0.8,1.8,1.3,3,1.3s2.2-0.4,3-1.3
		c0.8-0.8,1.2-1.9,1.2-3.2s-0.4-2.4-1.2-3.2c-0.8-0.8-1.8-1.3-3-1.3s-2.2,0.4-3,1.3c-0.8,0.8-1.2,1.9-1.2,3.2S87,31.4,87.8,32.2z"/>
	<path fill="#262626" d="M104.4,28.4v7.5h-2.7V22.1h2.7v2.5c0.4-0.8,1-1.5,1.8-2c0.8-0.5,1.6-0.7,2.5-0.7c1.5,0,2.7,0.5,3.6,1.4
		c0.9,0.9,1.4,2.3,1.4,4.1v8.4h-2.7v-7.6c0-2.5-1-3.8-3-3.8c-0.9,0-1.8,0.3-2.5,1C104.8,26.1,104.4,27.1,104.4,28.4z"/>
	<path fill="#262626" d="M121.7,24.4v7c0,0.7,0.2,1.2,0.5,1.6c0.3,0.4,0.8,0.6,1.4,0.6s1.2-0.3,1.7-0.9l1.1,2c-1,0.9-2,1.4-3.2,1.4
		s-2.2-0.4-3-1.3c-0.8-0.9-1.2-2-1.2-3.5v-6.9h-1.6v-2.3h1.6v-4.3h2.7v4.3h3.4v2.3H121.7z"/>
	<path fill="#262626" d="M136.4,24.8c-1.4,0-2.4,0.5-3.1,1.4c-0.7,0.9-1,2.2-1,3.8v5.9h-2.7V22.1h2.7v2.8c0.4-0.9,1-1.6,1.8-2.1
		c0.8-0.6,1.6-0.8,2.4-0.9l0,2.9C136.5,24.8,136.4,24.8,136.4,24.8z"/>
	<path fill="#262626" d="M140.4,19.3c-0.3-0.4-0.5-0.8-0.5-1.3c0-0.5,0.2-0.9,0.5-1.3s0.8-0.5,1.2-0.5s0.9,0.2,1.2,0.5
		s0.5,0.8,0.5,1.3c0,0.5-0.2,0.9-0.5,1.3c-0.3,0.4-0.8,0.5-1.2,0.5S140.8,19.7,140.4,19.3z M143,35.8h-2.7V22.1h2.7V35.8z"/>
	<path fill="#262626" d="M154.9,21.9c1.7,0,3.2,0.6,4.5,1.9c1.2,1.3,1.9,3,1.9,5.1s-0.6,3.8-1.8,5.2c-1.2,1.3-2.7,2-4.3,2
		s-3.1-0.8-4.4-2.3v2.1h-2.7V16.6h2.7v7.8C151.8,22.7,153.2,21.9,154.9,21.9z M150.6,29c0,1.3,0.4,2.4,1.1,3.2
		c0.8,0.8,1.7,1.3,2.7,1.3s2-0.4,2.8-1.2c0.8-0.8,1.2-1.9,1.2-3.2s-0.4-2.4-1.2-3.3c-0.8-0.9-1.7-1.3-2.8-1.3s-2,0.4-2.8,1.3
		S150.6,27.7,150.6,29z"/>
	<path fill="#262626" d="M174.5,29.5v-7.5h2.7v13.8h-2.7v-2.5c-0.4,0.8-1,1.5-1.8,2c-0.8,0.5-1.6,0.7-2.5,0.7
		c-1.5,0-2.7-0.5-3.6-1.4s-1.4-2.3-1.4-4.1v-8.4h2.7v7.6c0,2.5,1,3.8,3,3.8c0.9,0,1.8-0.3,2.5-1C174.2,31.8,174.5,30.8,174.5,29.5z"
		/>
	<path fill="#262626" d="M185.6,24.4v7c0,0.7,0.2,1.2,0.5,1.6c0.3,0.4,0.8,0.6,1.4,0.6s1.2-0.3,1.7-0.9l1.1,2c-1,0.9-2,1.4-3.2,1.4
		s-2.2-0.4-3-1.3c-0.8-0.9-1.2-2-1.2-3.5v-6.9h-1.6v-2.3h1.6v-4.3h2.7v4.3h3.4v2.3H185.6z"/>
	<path fill="#262626" d="M205.5,30.2h-10.2c0.1,1,0.5,1.8,1.3,2.4c0.8,0.6,1.7,0.9,2.7,0.9c1.6,0,2.9-0.5,3.7-1.6l1.6,1.8
		c-1.4,1.5-3.2,2.3-5.5,2.3c-1.8,0-3.4-0.6-4.7-1.9c-1.3-1.3-1.9-3-1.9-5.2c0-2.2,0.7-3.9,2-5.2c1.3-1.3,2.8-1.9,4.6-1.9
		c1.8,0,3.3,0.6,4.5,1.7c1.2,1.1,1.9,2.7,1.9,4.7V30.2z M195.3,27.9h7.5c0-1.2-0.3-2-1-2.7c-0.7-0.6-1.5-0.9-2.5-0.9s-1.9,0.3-2.7,1
		C195.7,26,195.3,26.8,195.3,27.9z"/>
	<path fill="#262626" d="M210.5,34.1c-1.2-1.3-1.8-3-1.8-5.2s0.6-3.8,1.9-5.1c1.3-1.3,2.8-1.9,4.5-1.9s3.1,0.8,4.2,2.3v-7.6h2.7
		v19.2h-2.7v-2.1c-1,1.5-2.5,2.3-4.4,2.3C213.2,36,211.8,35.4,210.5,34.1z M211.5,29c0,1.3,0.4,2.4,1.2,3.2c0.8,0.8,1.7,1.2,2.8,1.2
		s2-0.4,2.7-1.3c0.8-0.8,1.1-1.9,1.1-3.2s-0.4-2.4-1.1-3.3c-0.8-0.9-1.7-1.3-2.8-1.3c-1.1,0-2,0.4-2.8,1.3
		C211.8,26.6,211.5,27.7,211.5,29z"/>
</g>
<g>
	<path fill="#262626" d="M88.3,45.1c-0.5,0-0.9,0.1-1.2,0.3s-0.5,0.5-0.5,1c0,0.4,0.2,0.8,0.5,1c0.3,0.2,1,0.5,2,0.7
		c1,0.3,1.8,0.6,2.3,1.1c0.5,0.5,0.8,1.2,0.8,2.1s-0.3,1.7-1,2.3c-0.7,0.6-1.5,0.9-2.6,0.9c-1.6,0-3-0.6-4.2-1.7l1.1-1.4
		c1,0.9,2.1,1.4,3.2,1.4c0.5,0,1-0.1,1.3-0.4c0.3-0.2,0.5-0.6,0.5-1c0-0.4-0.2-0.7-0.5-1c-0.3-0.2-0.8-0.4-1.6-0.6s-1.3-0.4-1.7-0.5
		c-0.4-0.2-0.7-0.4-1-0.6c-0.6-0.5-0.9-1.2-0.9-2.2s0.3-1.7,1-2.3c0.7-0.5,1.5-0.8,2.5-0.8c0.6,0,1.3,0.1,1.9,0.3s1.2,0.5,1.6,0.9
		L91,46.1c-0.3-0.3-0.7-0.5-1.2-0.7C89.3,45.2,88.8,45.1,88.3,45.1z"/>
	<path fill="#262626" d="M107.7,54.4h-1.7v-4.2l-3.7-6.4h1.9l2.8,4.8l2.8-4.8h1.9l-3.7,6.4V54.4z"/>
	<path fill="#262626" d="M125.1,45.1c-0.5,0-0.9,0.1-1.2,0.3s-0.5,0.5-0.5,1c0,0.4,0.2,0.8,0.5,1c0.3,0.2,1,0.5,2,0.7
		c1,0.3,1.8,0.6,2.3,1.1c0.5,0.5,0.8,1.2,0.8,2.1s-0.3,1.7-1,2.3c-0.7,0.6-1.5,0.9-2.6,0.9c-1.6,0-3-0.6-4.2-1.7l1.1-1.4
		c1,0.9,2.1,1.4,3.2,1.4c0.5,0,1-0.1,1.3-0.4c0.3-0.2,0.5-0.6,0.5-1c0-0.4-0.2-0.7-0.5-1c-0.3-0.2-0.8-0.4-1.6-0.6s-1.3-0.4-1.7-0.5
		s-0.7-0.4-1-0.6c-0.6-0.5-0.9-1.2-0.9-2.2s0.3-1.7,1-2.3s1.5-0.8,2.5-0.8c0.6,0,1.3,0.1,1.9,0.3c0.6,0.2,1.2,0.5,1.6,0.9l-0.9,1.4
		c-0.3-0.3-0.7-0.5-1.2-0.7S125.6,45.1,125.1,45.1z"/>
	<path fill="#262626" d="M144.4,45.4v9h-1.7v-9h-3.1v-1.6h7.8v1.6H144.4z"/>
	<path fill="#262626" d="M165.9,43.7v1.7h-5.4v2.8h4.8v1.6h-4.8v2.8h5.5v1.7h-7.2V43.7H165.9z"/>
	<path fill="#262626" d="M179.5,54.4h-1.7V43.7h2.6l3,6.7l3-6.7h2.6v10.6h-1.7v-8.3l-3.5,7.4h-1l-3.5-7.4V54.4z"/>
	<path fill="#262626" d="M204.5,45.1c-0.5,0-0.9,0.1-1.2,0.3s-0.5,0.5-0.5,1c0,0.4,0.2,0.8,0.5,1c0.3,0.2,1,0.5,2,0.7
		c1,0.3,1.8,0.6,2.3,1.1c0.5,0.5,0.8,1.2,0.8,2.1s-0.3,1.7-1,2.3c-0.7,0.6-1.5,0.9-2.6,0.9c-1.6,0-3-0.6-4.2-1.7l1.1-1.4
		c1,0.9,2.1,1.4,3.2,1.4c0.5,0,1-0.1,1.3-0.4c0.3-0.2,0.5-0.6,0.5-1c0-0.4-0.2-0.7-0.5-1c-0.3-0.2-0.8-0.4-1.6-0.6s-1.3-0.4-1.7-0.5
		s-0.7-0.4-1-0.6c-0.6-0.5-0.9-1.2-0.9-2.2s0.3-1.7,1-2.3s1.5-0.8,2.5-0.8c0.6,0,1.3,0.1,1.9,0.3c0.6,0.2,1.2,0.5,1.6,0.9l-0.9,1.4
		c-0.3-0.3-0.7-0.5-1.2-0.7S205,45.1,204.5,45.1z"/>
</g>
</svg>
